<svg width="512" height="512" viewBox="0 0 512 512" xmlns="http://www.w3.org/2000/svg"><title>facebook</title><g fill="none" fill-rule="evenodd"><path fill="#3B5998" d="M0 0h512v512H0z"/><path d="M343.586 81.073L298.199 81c-50.991 0-83.944 33.808-83.944 86.135v39.715H168.62a7.137 7.137 0 0 0-7.136 7.14v57.541a7.137 7.137 0 0 0 7.136 7.137h45.635v145.195a7.134 7.134 0 0 0 7.137 7.137h59.54a7.137 7.137 0 0 0 7.137-7.137V278.668h53.358a7.134 7.134 0 0 0 7.136-7.137l.022-57.541a7.147 7.147 0 0 0-2.09-5.047 7.138 7.138 0 0 0-5.05-2.093h-53.376v-33.667c0-16.18 3.856-24.395 24.935-24.395l30.575-.011a7.136 7.136 0 0 0 7.133-7.137V88.21c0-3.937-3.19-7.13-7.126-7.137z" fill="#FFF"/></g></svg>