<svg width="512" height="512" viewBox="0 0 512 512" xmlns="http://www.w3.org/2000/svg"><title>google</title><g fill="none" fill-rule="evenodd"><path d="M177.859 14.001C115.663 35.277 62.665 81.811 33.146 140.697c-10.297 20.315-17.711 41.866-22.242 64.24-11.259 55.455-3.433 114.617 22.105 165.13 16.613 32.944 40.503 62.32 69.336 85.242 27.322 21.688 59.038 37.886 92.814 46.808 42.562 11.393 87.87 11.118 130.708 1.373 38.718-8.923 75.377-27.454 104.622-54.358 30.892-28.414 52.997-65.75 64.667-105.968 12.77-43.788 14.417-90.596 6.453-135.619H261.337V307.2h139.22c-5.354 31.846-24.301 60.946-51.075 78.928-16.887 11.393-36.246 18.668-56.292 22.237-20.046 3.431-40.915 3.843-60.96-.138-20.458-4.118-39.817-12.628-56.842-24.57-27.185-19.08-47.918-46.945-58.49-78.379-10.846-31.983-10.983-67.534 0-99.38 7.69-22.511 20.32-43.238 37.071-60.26 20.595-21.138 47.368-36.237 76.338-42.414 24.714-5.216 50.8-4.256 74.965 3.02 20.595 6.176 39.542 17.57 55.057 32.394l46.956-46.945c8.238-8.373 16.888-16.472 24.851-25.12-23.752-21.962-51.761-39.669-82.242-50.925C294.974-4.667 233.19-5.079 177.86 14.001z" fill="#FFF"/><path d="M177.859 14.001c55.194-19.08 117.116-18.668 172.035 1.51 30.48 11.256 58.352 28.826 82.242 50.925-7.963 8.648-16.613 16.747-24.85 25.12l-46.957 46.945c-15.515-14.825-34.462-26.08-55.057-32.395-24.164-7.275-50.251-8.373-74.965-3.02-28.833 6.177-55.606 21.276-76.338 42.415-16.75 16.884-29.382 37.748-37.07 60.26-27.872-21.688-55.744-43.239-83.753-64.927C62.666 81.81 115.663 35.277 177.86 14.001z" fill="#EA4335"/><path d="M11.041 204.8c4.531-22.237 11.945-43.925 22.243-64.24 27.871 21.688 55.743 43.238 83.752 64.926-10.984 31.983-10.984 67.535 0 99.38-27.872 21.688-55.744 43.376-83.615 64.927C7.609 319.417-.217 260.255 11.04 204.8z" fill="#FBBC05"/><path d="M261.337 207.408h240.272c7.964 44.886 6.179 91.693-6.453 135.618-11.67 40.219-33.775 77.555-64.667 105.97l-81.144-63.006c26.773-17.981 45.72-47.082 51.075-78.927H261.2c.137-33.218.137-66.437.137-99.655z" fill="#4285F4"/><path d="M33.146 369.93c27.872-21.55 55.743-43.238 83.615-64.926 10.71 31.434 31.304 59.298 58.49 78.378 17.024 11.942 36.52 20.453 56.841 24.57 20.046 4.119 40.778 3.57 60.96.138 20.046-3.569 39.405-10.844 56.293-22.237l81.144 63.005c-29.245 27.041-65.904 45.435-104.622 54.357-42.837 9.746-88.146 10.02-130.708-1.373-33.776-8.922-65.492-24.982-92.814-46.807-28.696-22.786-52.586-52.161-69.199-85.105z" fill="#34A853"/></g></svg>