<svg width="512" height="512" viewBox="0 0 512 512" xmlns="http://www.w3.org/2000/svg"><title>linkedin</title><g fill="none" fill-rule="evenodd"><path fill="#0174B9" d="M0 0h512v512H0z"/><path d="M405.38 288.393v110.682h-64.167v-103.27c0-25.942-9.28-43.646-32.507-43.646-17.73 0-28.282 11.931-32.924 23.473-1.692 4.126-2.128 9.87-2.128 15.645v107.798h-64.189s.865-174.905 0-193.026h64.183v27.36c-.13.205-.3.426-.422.624h.422v-.624c8.527-13.133 23.756-31.895 57.842-31.895 42.231 0 73.89 27.588 73.89 86.879zM142.322 113C120.362 113 106 127.403 106 146.344c0 18.528 13.947 33.368 35.47 33.368h.428c22.385 0 36.305-14.837 36.305-33.368-.421-18.94-13.92-33.344-35.881-33.344zm-32.51 286.075h64.164V206.05h-64.164v193.026z" fill="#FFF"/></g></svg>