<svg width="512" height="512" viewBox="0 0 512 512" xmlns="http://www.w3.org/2000/svg"><title>twitter</title><path d="M459.616 151.692c.24 4.497.334 9.034.334 13.584 0 138.826-105.667 298.894-298.894 298.894-59.312 0-114.54-17.387-161.056-47.196 8.18.907 16.586 1.481 25.06 1.481 49.223 0 94.511-16.813 130.485-45.007-46.022-.814-84.784-31.224-98.168-72.95 6.418 1.228 13.01 1.909 19.722 1.909 9.607 0 18.894-1.308 27.687-3.696-48.063-9.7-84.29-52.107-84.29-103.052v-1.308c14.17 7.846 30.383 12.57 47.596 13.104C39.91 188.614 21.39 156.429 21.39 120c0-19.24 5.177-37.268 14.224-52.786 51.772 63.555 129.205 105.36 216.525 109.736-1.815-7.659-2.696-15.718-2.696-23.951 0-57.964 47.023-105 105.013-105 30.237 0 57.55 12.756 76.712 33.132a209.624 209.624 0 0 0 66.704-25.473c-7.86 24.512-24.525 45.101-46.182 58.098 21.23-2.509 41.445-8.153 60.313-16.546a211.056 211.056 0 0 1-52.387 54.481z" fill="#00ACED" fill-rule="evenodd"/></svg>