<?xml version="1.0" encoding="utf-8"?>
<!-- Generator: Adobe Illustrator 18.1.1, SVG Export Plug-In . SVG Version: 6.00 Build 0)  -->
<!DOCTYPE svg PUBLIC "-//W3C//DTD SVG 1.1//EN" "http://www.w3.org/Graphics/SVG/1.1/DTD/svg11.dtd">
<svg version="1.1" id="Layer_1" xmlns="http://www.w3.org/2000/svg" xmlns:xlink="http://www.w3.org/1999/xlink" x="0px" y="0px"
	 viewBox="295 157.3 251.3 282.7" enable-background="new 295 157.3 251.3 282.7" xml:space="preserve">
<path d="M499.2,345.8c-6.7,0-13,1.4-18.7,3.9c-0.1,0.1-0.2,0.1-0.4,0.2c-2.9,1.4-6.1,2.1-9.5,2.1c-3.7,0-7.3-0.9-10.4-2.5
	c-0.9-0.5-1.8-1-2.6-1.5L397.9,312c-0.1-0.1-0.2-0.1-0.2-0.2c-0.2-0.1-0.4-0.2-0.6-0.4c-4.2-2.7-7-7.4-7-12.8c0-5.5,2.9-10.3,7.3-13
	l60.7-36.4c0.1,0,0.1-0.1,0.2-0.1c0.5-0.3,1.1-0.7,1.6-1c0,0,0,0,0.1,0c3.2-1.8,6.9-2.7,10.8-2.7c3.4,0,6.5,0.7,9.4,2
	c0.2,0.1,0.3,0.1,0.5,0.2c5.7,2.5,12,3.9,18.7,3.9c26,0,47.1-21.1,47.1-47.1c0-26-21.1-47.1-47.1-47.1c-24.8,0-45.1,19.2-47,43.5
	c-0.4,7.3-4.2,13.7-9.9,17.6c-0.7,0.5-1.4,0.9-2.2,1.3l-55.9,33.6c0,0,0,0,0,0c-1.2,0.9-2.5,1.7-3.9,2.3c-2.9,1.4-6.2,2.2-9.7,2.2
	c-2.7,0-5.3-0.5-7.6-1.3c-1.1-0.4-2.2-0.9-3.3-1.5c-5.4-2.2-11.4-3.4-17.6-3.4c-26,0-47.1,21.1-47.1,47.1c0,26,21.1,47.1,47.1,47.1
	c6.6,0,12.9-1.4,18.6-3.9c0.2-0.1,0.4-0.2,0.6-0.2c2.8-1.3,6-2,9.3-2c4.1,0,8,1.1,11.3,3c0.3,0.2,0.6,0.3,0.9,0.5l57.4,34.4
	c0.7,0.4,1.5,0.8,2.2,1.3c5.7,3.9,9.5,10.3,9.9,17.6c1.8,24.3,22.2,43.5,47,43.5c26,0,47.1-21.1,47.1-47.1
	C546.3,366.8,525.2,345.8,499.2,345.8z"/>
</svg>
