<svg xmlns="http://www.w3.org/2000/svg" width="544.2" height="544.2" viewBox="0 0 544.2 544.2"><path d="M272.1 0C2.1 0 0 121.8 0 272.1s2.1 272.1 272.1 272.1 272.1-121.8 272.1-272.1S542.1 0 272.1 0zm83.8 422.8c-26.4 0-48.2-20.5-50.1-46.4-.5-7.8-4.5-14.6-10.6-18.8-.7-.5-1.6-1-2.3-1.4l-61.2-36.7c-.4-.2-.7-.3-1-.5-3.6-2-7.7-3.2-12.1-3.2-3.5 0-6.9.7-9.9 2.1-.2 0-.4.1-.6.2-6 2.7-12.8 4.2-19.8 4.2-27.7 0-50.2-22.5-50.2-50.2s22.5-50.2 50.2-50.2c6.6 0 13 1.3 18.8 3.6 1.2.6 2.3 1.2 3.5 1.6 2.4.9 5.2 1.4 8.1 1.4 3.7 0 7.2-.8 10.3-2.3 1.5-.7 2.9-1.5 4.2-2.5l59.6-35.8c.8-.4 1.6-.9 2.3-1.4 6.1-4.2 10.2-11 10.6-18.8 2-25.9 23.6-46.4 50.1-46.4 27.7 0 50.2 22.5 50.2 50.2s-22.5 50.2-50.2 50.2c-7.1 0-13.8-1.5-19.9-4.2-.2-.1-.3-.1-.5-.2-3.1-1.4-6.4-2.1-10-2.1-4.1 0-8.1 1-11.5 2.9h-.1c-.5.4-1.2.8-1.7 1.1-.1 0-.1.1-.2.1l-64.8 38.8c-4.7 2.9-7.8 8-7.8 13.9 0 5.8 3 10.8 7.5 13.7.2.2.4.3.6.4 0 .1.1.1.2.2l63.7 38.3c.9.5 1.8 1.1 2.8 1.6 3.3 1.7 7.2 2.7 11.1 2.7 3.6 0 7-.7 10.1-2.2.2-.1.3-.1.4-.2 6-2.7 12.8-4.2 19.9-4.2 27.8 0 50.3 22.5 50.5 50.3 0 27.7-22.5 50.2-50.2 50.2z" fill="#0ea2ff"/></svg>