<?xml version="1.0" encoding="utf-8"?>
<!-- Generator: Adobe Illustrator 18.1.1, SVG Export Plug-In . SVG Version: 6.00 Build 0)  -->
<!DOCTYPE svg PUBLIC "-//W3C//DTD SVG 1.1//EN" "http://www.w3.org/Graphics/SVG/1.1/DTD/svg11.dtd">
<svg version="1.1" id="Layer_1" xmlns="http://www.w3.org/2000/svg" xmlns:xlink="http://www.w3.org/1999/xlink" x="0px" y="0px"
	 viewBox="1886.5 408.6 595.3 595.3" enable-background="new 1886.5 408.6 595.3 595.3" xml:space="preserve">
<linearGradient id="SVGID_1_" gradientUnits="userSpaceOnUse" x1="3.4885" y1="0.4951" x2="2.0665" y2="2.4321" gradientTransform="matrix(594.2595 0 0 594.2595 445.3253 -43.959)">
	<stop  offset="0" style="stop-color:#076AFF"/>
	<stop  offset="1" style="stop-color:#1BFFFF"/>
</linearGradient>
<circle fill="url(#SVGID_1_)" stroke="#979797" cx="2183.7" cy="706.2" r="297.1"/>
<path fill="#FFFFFF" d="M2245.7,753.3c-6.7,0-13,1.4-18.7,3.9c-0.1,0.1-0.2,0.1-0.4,0.2c-2.9,1.4-6.1,2.1-9.5,2.1
	c-3.7,0-7.3-0.9-10.4-2.5c-0.9-0.5-1.8-1-2.6-1.5l-59.7-35.9c-0.1-0.1-0.2-0.1-0.2-0.2c-0.2-0.1-0.4-0.2-0.6-0.4
	c-4.2-2.7-7-7.4-7-12.8c0-5.5,2.9-10.3,7.3-13l60.7-36.4c0.1,0,0.1-0.1,0.2-0.1c0.5-0.3,1.1-0.7,1.6-1c0,0,0,0,0.1,0
	c3.2-1.8,6.9-2.7,10.8-2.7c3.4,0,6.5,0.7,9.4,2c0.2,0.1,0.3,0.1,0.5,0.2c5.7,2.5,12,3.9,18.7,3.9c26,0,47.1-21.1,47.1-47.1
	c0-26-21.1-47.1-47.1-47.1c-24.8,0-45.1,19.2-47,43.5c-0.4,7.3-4.2,13.7-9.9,17.6c-0.7,0.5-1.4,0.9-2.2,1.3l-55.9,33.6c0,0,0,0,0,0
	c-1.2,0.9-2.5,1.7-3.9,2.3c-2.9,1.4-6.2,2.2-9.7,2.2c-2.7,0-5.3-0.5-7.6-1.3c-1.1-0.4-2.2-0.9-3.3-1.5c-5.4-2.2-11.4-3.4-17.6-3.4
	c-26,0-47.1,21.1-47.1,47.1c0,26,21.1,47.1,47.1,47.1c6.6,0,12.9-1.4,18.6-3.9c0.2-0.1,0.4-0.2,0.6-0.2c2.8-1.3,6-2,9.3-2
	c4.1,0,8,1.1,11.3,3c0.3,0.2,0.6,0.3,0.9,0.5l57.4,34.4c0.7,0.4,1.5,0.8,2.2,1.3c5.7,3.9,9.5,10.3,9.9,17.6
	c1.8,24.3,22.2,43.5,47,43.5c26,0,47.1-21.1,47.1-47.1C2292.8,774.4,2271.7,753.3,2245.7,753.3z"/>
</svg>
