<?xml version="1.0" encoding="UTF-8" standalone="no"?>
<svg width="512px" height="512px" viewBox="0 0 512 512" version="1.1" xmlns="http://www.w3.org/2000/svg" xmlns:xlink="http://www.w3.org/1999/xlink" xmlns:sketch="http://www.bohemiancoding.com/sketch/ns">
    <!-- Generator: Sketch 3.3.3 (12072) - http://www.bohemiancoding.com/sketch -->
    <title>facebook</title>
    <desc>Created with Sketch.</desc>
    <defs></defs>
    <g id="Icons" stroke="none" stroke-width="1" fill="none" fill-rule="evenodd" sketch:type="MSPage">
        <g id="facebook" sketch:type="MSArtboardGroup">
            <rect id="Rectangle-17" fill="#3B5998" sketch:type="MSShapeGroup" x="0" y="0" width="512" height="512"></rect>
            <path d="M343.585822,81.0728234 L298.198662,81 C247.207744,81 214.255173,114.808246 214.255173,167.135472 L214.255173,206.849693 L168.620413,206.849693 C164.677028,206.849693 161.483724,210.046638 161.483724,213.990023 L161.483724,271.531402 C161.483724,275.474788 164.68067,278.668092 168.620413,278.668092 L214.255173,278.668092 L214.255173,423.863311 C214.255173,427.806696 217.448477,431 221.391863,431 L280.932243,431 C284.875628,431 288.068933,427.803054 288.068933,423.863311 L288.068933,278.668092 L341.42661,278.668092 C345.369995,278.668092 348.563299,275.474788 348.563299,271.531402 L348.585146,213.990023 C348.585146,212.096616 347.831424,210.283314 346.495116,208.943364 C345.158807,207.603414 343.338223,206.849693 341.444815,206.849693 L288.068933,206.849693 L288.068933,173.183452 C288.068933,157.002101 291.92493,148.787626 313.003652,148.787626 L343.57854,148.776703 C347.518284,148.776703 350.711588,145.579757 350.711588,141.640013 L350.711588,88.2095128 C350.711588,84.2734101 347.521925,81.0801057 343.585822,81.0728234 L343.585822,81.0728234 Z" id="Shape" fill="#FFFFFF" sketch:type="MSShapeGroup"></path>
        </g>
    </g>
</svg>