<?xml version="1.0" encoding="UTF-8" standalone="no"?>
<svg width="512px" height="512px" viewBox="0 0 512 512" version="1.1" xmlns="http://www.w3.org/2000/svg" xmlns:xlink="http://www.w3.org/1999/xlink" xmlns:sketch="http://www.bohemiancoding.com/sketch/ns">
    <!-- Generator: Sketch 3.3.3 (12072) - http://www.bohemiancoding.com/sketch -->
    <title>google</title>
    <desc>Created with Sketch.</desc>
    <defs></defs>
    <g id="Icons" stroke="none" stroke-width="1" fill="none" fill-rule="evenodd" sketch:type="MSPage">
        <g id="google" sketch:type="MSArtboardGroup">
            <g id="Group" sketch:type="MSLayerGroup" transform="translate(5.000000, 0.000000)">
                <path d="M172.859047,14.0010724 C110.662742,35.2772118 57.6654486,81.8101877 28.1462309,140.697051 C17.8488293,161.012332 10.4347002,182.563003 5.90384355,204.937265 C-5.3546488,260.392493 2.47137637,319.553887 28.0089322,370.06756 C44.6220733,403.01126 68.5120449,432.386059 97.3447692,455.309383 C124.667208,476.997319 156.383205,493.194638 190.158682,502.11689 C232.721275,513.50992 278.029841,513.235389 320.867032,503.489544 C359.585262,494.567292 396.244011,476.036461 425.488631,449.13244 C456.380836,420.718499 478.485925,383.382306 490.156313,343.163539 C502.925091,299.375871 504.572675,252.568365 496.609351,207.545308 L256.336649,207.545308 L256.336649,307.2 L395.557518,307.2 C390.202869,339.045576 371.25565,368.145845 344.482406,386.127614 C327.594667,397.520643 308.235553,404.79571 288.189944,408.364611 C268.144336,411.796247 247.274935,412.208043 227.229327,408.227346 C206.771823,404.109383 187.412708,395.598928 170.387671,383.656836 C143.202531,364.576944 122.470429,336.712064 111.89843,305.278284 C101.051834,273.295442 100.914535,237.7437 111.89843,205.898123 C119.587156,183.386595 132.218636,162.659517 148.969076,145.638606 C169.563879,124.499732 196.337123,109.400536 225.307146,103.223592 C250.020909,98.0075067 276.10766,98.9683646 300.272229,106.243432 C320.867032,112.420375 339.814251,123.813405 355.329002,138.63807 C370.981053,122.989812 386.633103,107.341555 402.285153,91.6932976 C410.523074,83.3201072 419.172892,75.2214477 427.136216,66.5737265 C403.383543,44.6112601 375.374611,26.9040214 344.894302,15.6482574 C289.974827,-4.66702413 228.190418,-5.07882038 172.859047,14.0010724 L172.859047,14.0010724 Z" id="Shape" fill="#FFFFFF" sketch:type="MSShapeGroup"></path>
                <path d="M172.859047,14.0010724 C228.053119,-5.07882038 289.974827,-4.66702413 344.894302,15.510992 C375.374611,26.766756 403.246244,44.3367292 427.136216,66.4364611 C419.172892,75.0841823 410.523074,83.1828418 402.285153,91.5560322 C386.633103,107.20429 370.981053,122.852547 355.329002,138.500804 C339.814251,123.676139 320.867032,112.420375 300.272229,106.106166 C276.10766,98.8310992 250.020909,97.7329759 225.307146,103.086327 C196.474421,109.263271 169.701177,124.362466 148.969076,145.50134 C132.218636,162.384987 119.587156,183.24933 111.89843,205.760858 C84.0267965,184.072922 56.155163,162.522252 28.1462309,140.834316 C57.6654486,81.8101877 110.662742,35.2772118 172.859047,14.0010724 L172.859047,14.0010724 Z" id="Shape" fill="#EA4335" sketch:type="MSShapeGroup"></path>
                <path d="M6.04114223,204.8 C10.5719989,182.563003 17.986128,160.875067 28.2835295,140.559786 C56.155163,162.247721 84.0267965,183.798391 112.035729,205.486327 C101.051834,237.469169 101.051834,273.020912 112.035729,304.866488 C84.1640952,326.554424 56.2924617,348.242359 28.4208282,369.793029 C2.60867506,319.416622 -5.21735011,260.255228 6.04114223,204.8 L6.04114223,204.8 Z" id="Shape" fill="#FBBC05" sketch:type="MSShapeGroup"></path>
                <path d="M256.336649,207.408043 L496.609351,207.408043 C504.572675,252.293834 502.787792,299.10134 490.156313,343.026273 C478.485925,383.24504 456.380836,420.581233 425.488631,448.995174 C398.44079,427.993566 371.392949,406.991957 344.345107,385.990349 C371.118351,368.008579 390.06557,338.908311 395.420219,307.062735 L256.19935,307.062735 C256.336649,273.844504 256.336649,240.626273 256.336649,207.408043 L256.336649,207.408043 Z" id="Shape" fill="#4285F4" sketch:type="MSShapeGroup"></path>
                <path d="M28.1462309,369.930295 C56.0178643,348.379625 83.8894978,326.691689 111.761131,305.003753 C122.470429,336.437534 143.065232,364.302413 170.250372,383.382306 C187.275409,395.324397 206.771823,403.834853 227.092028,407.952815 C247.137637,412.070777 267.869739,411.521716 288.052646,408.09008 C308.098254,404.52118 327.457369,397.246113 344.345107,385.853083 C371.392949,406.854692 398.44079,427.8563 425.488631,448.857909 C396.244011,475.899196 359.585262,494.292761 320.867032,503.215013 C278.029841,512.960858 232.721275,513.235389 190.158682,501.842359 C156.383205,492.920107 124.667208,476.860054 97.3447692,455.034853 C68.6493436,432.248794 44.759372,402.873995 28.1462309,369.930295 L28.1462309,369.930295 Z" id="Shape" fill="#34A853" sketch:type="MSShapeGroup"></path>
            </g>
        </g>
    </g>
</svg>