<?xml version="1.0" encoding="UTF-8" standalone="no"?>
<svg width="512px" height="512px" viewBox="0 0 512 512" version="1.1" xmlns="http://www.w3.org/2000/svg" xmlns:xlink="http://www.w3.org/1999/xlink" xmlns:sketch="http://www.bohemiancoding.com/sketch/ns">
    <!-- Generator: Sketch 3.3.3 (12072) - http://www.bohemiancoding.com/sketch -->
    <title>linkedin</title>
    <desc>Created with Sketch.</desc>
    <defs></defs>
    <g id="Icons" stroke="none" stroke-width="1" fill="none" fill-rule="evenodd" sketch:type="MSPage">
        <g id="linkedin" sketch:type="MSArtboardGroup">
            <rect id="Rectangle-17" fill="#0174B9" sketch:type="MSShapeGroup" x="0" y="0" width="512" height="512"></rect>
            <path d="M405.380212,288.392562 L405.380212,399.075337 L341.213339,399.075337 L341.213339,295.805427 C341.213339,269.863184 331.932293,252.158617 308.706012,252.158617 C290.975691,252.158617 280.424366,264.090198 275.78245,275.631994 C274.089672,279.758141 273.653949,285.501197 273.653949,291.276967 L273.653949,399.075337 L209.465498,399.075337 C209.465498,399.075337 210.329985,224.170006 209.465498,206.048509 L273.647684,206.048509 L273.647684,233.409289 C273.517524,233.613926 273.348386,233.834572 273.225882,234.032944 L273.647684,234.032944 L273.647684,233.409289 C282.174915,220.275641 297.403655,201.513784 331.490305,201.513784 C373.721362,201.513088 405.380212,229.102171 405.380212,288.392562 L405.380212,288.392562 Z M142.321646,113 C120.362861,113 106,127.403232 106,146.343972 C106,164.871958 119.947323,179.712305 141.469689,179.712305 L141.898452,179.712305 C164.28252,179.712305 178.203393,164.874742 178.203393,146.343972 C177.781591,127.403232 164.28252,113 142.321646,113 L142.321646,113 Z M109.812231,399.075337 L173.97632,399.075337 L173.97632,206.048509 L109.812231,206.048509 L109.812231,399.075337 L109.812231,399.075337 Z" id="LinkedIn" fill="#FFFFFF" sketch:type="MSShapeGroup"></path>
        </g>
    </g>
</svg>