<?xml version="1.0" encoding="UTF-8" standalone="no"?>
<svg width="512px" height="512px" viewBox="0 0 512 512" version="1.1" xmlns="http://www.w3.org/2000/svg" xmlns:xlink="http://www.w3.org/1999/xlink" xmlns:sketch="http://www.bohemiancoding.com/sketch/ns">
    <!-- Generator: Sketch 3.3.3 (12072) - http://www.bohemiancoding.com/sketch -->
    <title>twitter</title>
    <desc>Created with Sketch.</desc>
    <defs></defs>
    <g id="Icons" stroke="none" stroke-width="1" fill="none" fill-rule="evenodd" sketch:type="MSPage">
        <g id="twitter" sketch:type="MSArtboardGroup" fill="#00ACED">
            <path d="M459.616407,151.692237 C459.85659,156.188992 459.949994,160.725777 459.949994,165.275907 C459.949994,304.101544 354.282921,464.170013 161.055887,464.170013 C101.744088,464.170013 46.5153954,446.78345 0,416.9741 C8.17955748,417.881457 16.5859542,418.455227 25.0590684,418.455227 C74.2831917,418.455227 119.570986,401.642434 155.545027,373.447646 C109.523341,372.633693 70.7605111,342.223887 57.3769937,300.498803 C63.7952109,301.726404 70.3868935,302.406922 77.0986674,302.406922 C86.705978,302.406922 95.9930449,301.09926 104.786403,298.710776 C56.7231629,289.010061 20.4955959,246.604459 20.4955959,195.659026 L20.4955959,194.351364 C34.666379,202.197335 50.8787156,206.920929 68.0918137,207.454669 C39.9103694,188.613665 21.3896095,156.429175 21.3896095,120.001455 C21.3896095,100.760147 26.5668825,82.7330964 35.6137666,67.2146212 C87.3864958,130.769649 164.81875,172.574794 252.138529,176.951458 C250.323815,169.292296 249.443144,161.23283 249.443144,152.999899 C249.443144,95.0357914 296.465592,48 354.456386,48 C384.692728,48 412.006846,60.7563735 431.168093,81.131878 C455.066278,76.4483141 477.57674,67.7083302 497.872184,55.6591615 C490.01287,80.171147 473.346855,100.760147 451.690376,113.756704 C472.919863,111.248128 493.135246,105.603833 512.002936,97.2107797 C497.952245,118.386893 480.165377,136.880966 459.616407,151.692237 L459.616407,151.692237 Z" id="Path-Copy" sketch:type="MSShapeGroup"></path>
        </g>
    </g>
</svg>