<!-- Generator: Adobe Illustrator 24.2.1, SVG Export Plug-In  -->
<svg version="1.1" xmlns="http://www.w3.org/2000/svg" xmlns:xlink="http://www.w3.org/1999/xlink" x="0px" y="0px" width="544.2px"
     height="544.2px" viewBox="0 0 544.2 544.2" style="overflow:visible;enable-background:new 0 0 544.2 544.2;"
     xml:space="preserve">
<defs>
</defs>
<g>
    <g>
        <path style="fill:#1099FF;" d="M272.1,0C2.1,0,0,121.8,0,272.1s2.1,272.1,272.1,272.1s272.1-121.8,272.1-272.1S542.1,0,272.1,0z"
            />
    </g>
    <g>
        <path style="fill:#FFFFFF;" d="M409.3,159.1c0-12.2-7.7-19.8-19.8-19.8c-84.8,0-149.5,0-234.3,0c-12.8,0-20.3,7.5-20.3,20.2
            c0,85,0,156.2,0,241.2c0,0.8-0.6,4.6,5.5,4.6c6.2,0,11.4,0,28,0c40.1,0,80.2,0,120.3,0c-3.3-9.8-5-20.2-5-31.1
            c0-54.2,43.9-98.1,98.1-98.1c9.5,0,18.8,1.4,27.5,3.9C409.3,237.4,409.3,189.8,409.3,159.1z M176.1,190.5c2.3-2.6,5.4-3.8,8.8-3.8
            c18.3,0,36.5-0.1,54.8,0c6.7,0,11.7,5.1,11.7,11.6c0,6.5-5,11.5-11.7,11.6c0,0,0,0,0,0c0,0,0,0,0,0c-0.5,0-9.7,0-27.6,0
            c-9.1,0-18.1,0.1-27.2,0c-5.1-0.1-8.9-2.4-10.9-7.1C172.1,198.3,172.9,194.2,176.1,190.5z M176.8,235.9c2.2-2.1,4.9-3.1,8-3.1
            c9.2,0,18.4,0,27.6,0c0,0,0,0,0,0c9.2,0,18.4,0,27.6,0c5.8,0,10.7,4.4,11.3,9.9c0.7,6-2.8,11.3-8.5,12.8c-0.7,0.2-1.4,0.3-2.1,0.3
            c-18.9,0-37.8,0.1-56.7,0c-4.7,0-8.7-3.2-10.2-7.6C172.2,243.4,173.3,239.3,176.8,235.9z M246.8,347.9c-5.4,0-7.1,0-7.7,0l-7.8,0
            c-12.3,0-3,0-15.3,0c-28.8,0-1.7,0-30.6,0c-7.1,0-12.3-4.9-12.3-11.4c-0.1-6.6,5-11.7,11.9-11.8c8.6-0.1,17.1,0,25.7,0
            c7.7,0,12.6,0,15.7,0c-1.5,0,4.1,0,4.4,0c-0.2,0-1.4,0-4.4,0c1.1,0,6.1,0,19.9,0c6.6,0,11.3,3.6,12.4,9.4
            C260.2,341.5,254.7,347.9,246.8,347.9z M273.1,301.8c-2.4,0-3.9,0-4.8,0l-2.9,0c-41,0-39.1,0-80.2,0c-7.3,0-12.4-5.2-12.2-12.2
            c0.2-5.6,4.8-10.5,10.4-10.8c3.6-0.2,7.2-0.1,10.8-0.1c25.9,0,41.9,0,67.8,0c0.2,0,0.5,0,0.7,0c1.5,0,19.5,0,0,0
            c-0.6,0,1.4,0,9.6,0c6.5,0,11.1,3.5,12.3,9.3C286.1,295.3,280.7,301.8,273.1,301.8z M364.2,239c0,6-3.8,9.9-9.8,9.9
            c-18,0-36.1,0-54.1,0c-6,0-9.8-3.8-9.8-9.9c0-9,0-18,0-27c0-9,0-18,0-27c0-6,3.7-9.9,9.8-9.9c18,0,36.1,0,54.1,0
            c6,0,9.8,3.9,9.8,9.9C364.2,203.1,364.2,221.1,364.2,239z"/>
        <path style="fill:#FFFFFF;" d="M409.3,300.7c-1.2-0.4-2.4-0.9-3.6-1.3c-7.5-2.4-15.5-3.7-23.9-3.7c-43.3,0-78.4,35.1-78.4,78.4
            c0,11.1,2.3,21.6,6.4,31.1c1,2.3,2.1,4.6,3.3,6.8c13.4,24.2,39.1,40.5,68.7,40.5c43.3,0,78.4-35.1,78.4-78.4
            C460.2,340.5,439,311.8,409.3,300.7z M422.8,380.2c-5.2,4.3-10.7,8.4-16,12.6c-6.8,5.3-13.7,10.6-20.5,16
            c-2.8,2.3-5.8,3.3-9.3,1.7c-0.7-0.3-1.3-0.7-1.8-1.1c-2.1-1.7-3-4.1-2.9-7c0.1-2.8,0.1-5.7,0.1-9.4c-1,0.3-1.7,0.6-2.4,0.6
            c-22.2,0-2.1,0-24.3,0c-6.3,0-9.4-3.1-9.4-9.4c0-7,0-14,0-21c0-5.4,3.3-8.7,8.7-8.7c22.3,0,2.5,0,24.8,0c0.7,0,1.5,0.3,2.4,0.5
            c0-3.5,0-6.4,0-9.3c0-3.6,1.3-6.4,4.6-8c0.1-0.1,0.3-0.1,0.4-0.2c2.5-1.1,4.9-0.7,7.1,0.6c0.6,0.3,1.2,0.7,1.8,1.2
            c6.5,5.1,13,10.1,19.5,15.2c3.6,2.8,7.3,5.6,10.9,8.5c2.1,1.7,4.3,3.2,6.3,5C426.8,371.6,426.9,376.9,422.8,380.2z"/>
    </g>
</g>
</svg>
